<?xml version="1.0" standalone="no"?>
<!DOCTYPE svg PUBLIC "-//W3C//DTD SVG 20010904//EN"
 "http://www.w3.org/TR/2001/REC-SVG-20010904/DTD/svg10.dtd">
<svg version="1.0" xmlns="http://www.w3.org/2000/svg"
 width="980.000000pt" height="980.000000pt" viewBox="0 0 980.000000 980.000000"
 preserveAspectRatio="xMidYMid meet">
<metadata>
Created by potrace 1.14, written by Peter Selinger 2001-2017
</metadata>
<g transform="translate(0.000000,980.000000) scale(0.100000,-0.100000)"
fill="#000000" stroke="none">
<path d="M5528 7278 l-3 -292 -252 -145 -253 -146 0 -1375 0 -1375 -24 -50
c-25 -56 -78 -107 -133 -130 -80 -34 -207 -10 -263 49 l-22 24 -72 -42 c-297
-170 -366 -211 -366 -216 0 -3 23 -33 50 -68 91 -111 241 -208 390 -248 90
-25 290 -25 380 0 257 70 459 268 542 531 l23 70 3 1558 c1 856 5 1557 8 1557
4 0 116 -63 250 -141 l244 -141 0 -1413 c0 -1207 -2 -1425 -15 -1498 -67 -386
-327 -740 -670 -912 -339 -170 -707 -186 -1052 -45 -217 89 -421 251 -552 438
l-44 62 -36 -21 c-20 -12 -118 -68 -218 -126 -154 -88 -181 -107 -174 -121 54
-97 210 -282 326 -384 389 -343 902 -501 1405 -433 773 104 1380 690 1516
1465 18 99 19 192 19 1693 l0 1588 -485 280 c-267 155 -493 285 -502 290 -17
9 -18 -9 -20 -283z"/>
</g>
</svg>
